<svg xmlns="http://www.w3.org/2000/svg" xmlns:xlink="http://www.w3.org/1999/xlink" width="75" zoomAndPan="magnify" viewBox="0 0 56.25 56.249997" height="75" preserveAspectRatio="xMidYMid meet" version="1.0"><defs><clipPath id="997c7cd5ba"><path d="M 0 0 L 55.511719 0 L 55.511719 55.511719 L 0 55.511719 Z M 0 0 " clip-rule="nonzero"/></clipPath><clipPath id="f452709030"><path d="M 27.753906 -11.328125 L 67.003906 27.921875 L 27.753906 67.175781 L -11.5 27.921875 Z M 27.753906 -11.328125 " clip-rule="nonzero"/></clipPath><clipPath id="cc9e03f1cd"><path d="M 27.753906 -11.328125 L 67.003906 27.921875 L 27.753906 67.175781 L -11.5 27.921875 Z M 27.753906 -11.328125 " clip-rule="nonzero"/></clipPath></defs><g clip-path="url(#997c7cd5ba)"><g clip-path="url(#f452709030)"><g clip-path="url(#cc9e03f1cd)"><path fill="#000000" d="M 47.378906 8.296875 C 36.585938 -2.496094 18.917969 -2.496094 8.128906 8.296875 C -2.667969 19.09375 -2.667969 36.753906 8.128906 47.550781 C 18.917969 58.34375 36.585938 58.34375 47.378906 47.550781 C 58.171875 36.753906 58.171875 19.09375 47.378906 8.296875 Z M 33.640625 37.738281 L 27.753906 31.847656 L 21.867188 37.738281 C 20.6875 38.914062 19.117188 38.914062 17.941406 37.738281 C 16.761719 36.558594 16.761719 34.988281 17.941406 33.8125 L 23.824219 27.921875 L 17.941406 22.035156 C 16.761719 20.859375 16.761719 19.289062 17.941406 18.109375 C 19.117188 16.933594 20.6875 16.933594 21.867188 18.109375 L 27.753906 24 L 33.640625 18.109375 C 34.816406 16.933594 36.386719 16.933594 37.566406 18.109375 C 38.742188 19.289062 38.742188 20.859375 37.566406 22.035156 L 31.679688 27.921875 L 37.566406 33.8125 C 38.742188 34.988281 38.742188 36.558594 37.566406 37.738281 C 36.386719 38.914062 34.816406 38.914062 33.640625 37.738281 Z M 33.640625 37.738281 " fill-opacity="1" fill-rule="nonzero"/></g></g></g></svg>