<svg xmlns="http://www.w3.org/2000/svg" xmlns:xlink="http://www.w3.org/1999/xlink" width="600" zoomAndPan="magnify" viewBox="0 0 450 74.999997" height="100" preserveAspectRatio="xMidYMid meet" version="1.0"><defs><g/></defs><g fill="#000000" fill-opacity="1"><g transform="translate(-0.639398, 68.074295)"><g><path d="M 52.496094 0 L 52.496094 -10.179688 L 14.613281 -10.179688 L 14.613281 -23.894531 L 49.933594 -23.894531 L 49.933594 -33.519531 L 14.613281 -33.519531 L 14.613281 -45.984375 L 52.289062 -45.984375 L 52.289062 -56.164062 L 3.808594 -56.164062 L 3.808594 0 Z M 52.496094 0 "/></g></g></g><g fill="#000000" fill-opacity="1"><g transform="translate(54.618941, 68.074295)"><g><path d="M 14.75 0 L 14.75 -56.164062 L 3.738281 -56.164062 L 3.738281 0 Z M 14.75 0 "/></g></g></g><g fill="#000000" fill-opacity="1"><g transform="translate(73.107635, 68.074295)"><g><path d="M 27.078125 -7.546875 L 12.8125 -39.753906 L 1.109375 -39.753906 L 19.945312 0 L 34.144531 0 L 52.980469 -39.753906 L 41.277344 -39.753906 Z M 27.078125 -7.546875 "/></g></g></g><g fill="#000000" fill-opacity="1"><g transform="translate(127.1888, 68.074295)"><g><path d="M 53.742188 -18.699219 C 53.742188 -34.210938 42.730469 -41.277344 28.394531 -41.277344 C 12.605469 -41.277344 2.769531 -32.203125 2.769531 -20.152344 L 2.769531 -20.015625 C 2.769531 -6.511719 13.78125 1.039062 29.363281 1.039062 C 39.128906 1.039062 47.578125 -1.800781 52.011719 -4.222656 L 47.164062 -12.742188 C 42.800781 -10.597656 36.636719 -8.585938 29.640625 -8.585938 C 20.707031 -8.585938 15.375 -12.050781 14.199219 -17.523438 L 53.742188 -17.523438 Z M 28.324219 -32.410156 C 35.734375 -32.410156 41.207031 -29.15625 42.453125 -24.308594 L 14.472656 -24.308594 C 16.207031 -29.847656 21.46875 -32.410156 28.324219 -32.410156 Z M 28.324219 -32.410156 "/></g></g></g><g fill="#000000" fill-opacity="1"><g transform="translate(183.693571, 68.074295)"><g><path d="M 26.523438 1.109375 C 43.078125 1.109375 53.742188 -6.996094 53.742188 -20.082031 L 53.742188 -20.222656 C 53.742188 -33.382812 43.839844 -41.34375 27.21875 -41.34375 C 23.199219 -41.34375 18.007812 -40.792969 14.75 -40.03125 L 14.75 -56.164062 L 3.738281 -56.164062 L 3.738281 -2.285156 C 11.148438 -0.347656 18.144531 1.109375 26.523438 1.109375 Z M 26.523438 -8.726562 C 22.644531 -8.726562 18.144531 -9.210938 14.75 -9.972656 L 14.75 -30.265625 C 17.660156 -30.886719 22.507812 -31.511719 26.800781 -31.511719 C 37.257812 -31.511719 42.730469 -27.425781 42.730469 -20.222656 L 42.730469 -20.082031 C 42.730469 -12.949219 36.914062 -8.726562 26.523438 -8.726562 Z M 26.523438 -8.726562 "/></g></g></g><g fill="#000000" fill-opacity="1"><g transform="translate(240.26758, 68.074295)"><g><path d="M 14.75 0 L 14.75 -29.15625 C 17.453125 -29.640625 22.09375 -29.847656 25.554688 -29.847656 L 38.160156 -29.847656 L 38.160156 -40.097656 L 30.195312 -40.097656 C 24.792969 -40.097656 12.464844 -39.542969 3.738281 -38.367188 L 3.738281 0 Z M 14.75 0 "/></g></g></g><g fill="#000000" fill-opacity="1"><g transform="translate(280.984256, 68.074295)"><g><path d="M 53.742188 -18.699219 C 53.742188 -34.210938 42.730469 -41.277344 28.394531 -41.277344 C 12.605469 -41.277344 2.769531 -32.203125 2.769531 -20.152344 L 2.769531 -20.015625 C 2.769531 -6.511719 13.78125 1.039062 29.363281 1.039062 C 39.128906 1.039062 47.578125 -1.800781 52.011719 -4.222656 L 47.164062 -12.742188 C 42.800781 -10.597656 36.636719 -8.585938 29.640625 -8.585938 C 20.707031 -8.585938 15.375 -12.050781 14.199219 -17.523438 L 53.742188 -17.523438 Z M 28.324219 -32.410156 C 35.734375 -32.410156 41.207031 -29.15625 42.453125 -24.308594 L 14.472656 -24.308594 C 16.207031 -29.847656 21.46875 -32.410156 28.324219 -32.410156 Z M 28.324219 -32.410156 "/></g></g></g><g fill="#000000" fill-opacity="1"><g transform="translate(337.489016, 68.074295)"><g><path d="M 30.058594 1.109375 C 38.4375 1.109375 45.429688 -0.347656 52.839844 -2.285156 L 52.839844 -56.164062 L 41.828125 -56.164062 L 41.828125 -40.03125 C 38.574219 -40.792969 33.382812 -41.34375 29.363281 -41.34375 C 12.742188 -41.34375 2.839844 -33.382812 2.839844 -20.222656 L 2.839844 -20.082031 C 2.839844 -6.996094 13.503906 1.109375 30.058594 1.109375 Z M 30.058594 -8.726562 C 19.667969 -8.726562 13.851562 -12.949219 13.851562 -20.082031 L 13.851562 -20.222656 C 13.851562 -27.425781 19.320312 -31.511719 29.78125 -31.511719 C 34.074219 -31.511719 38.921875 -30.886719 41.828125 -30.265625 L 41.828125 -9.972656 C 38.4375 -9.210938 33.933594 -8.726562 30.058594 -8.726562 Z M 30.058594 -8.726562 "/></g></g></g><g fill="#000000" fill-opacity="1"><g transform="translate(394.063059, 68.074295)"><g><path d="M 30.058594 1.109375 C 38.4375 1.109375 45.429688 -0.347656 52.839844 -2.285156 L 52.839844 -56.164062 L 41.828125 -56.164062 L 41.828125 -40.03125 C 38.574219 -40.792969 33.382812 -41.34375 29.363281 -41.34375 C 12.742188 -41.34375 2.839844 -33.382812 2.839844 -20.222656 L 2.839844 -20.082031 C 2.839844 -6.996094 13.503906 1.109375 30.058594 1.109375 Z M 30.058594 -8.726562 C 19.667969 -8.726562 13.851562 -12.949219 13.851562 -20.082031 L 13.851562 -20.222656 C 13.851562 -27.425781 19.320312 -31.511719 29.78125 -31.511719 C 34.074219 -31.511719 38.921875 -30.886719 41.828125 -30.265625 L 41.828125 -9.972656 C 38.4375 -9.210938 33.933594 -8.726562 30.058594 -8.726562 Z M 30.058594 -8.726562 "/></g></g></g><path stroke-linecap="butt" transform="matrix(0.657204, 0, 0, 0.657204, 187.363676, 7.609532)" fill="none" stroke-linejoin="miter" d="M -0.000600801 6.502213 L 309.050164 6.502213 " stroke="#000000" stroke-width="13" stroke-opacity="1" stroke-miterlimit="4"/></svg>