<svg xmlns="http://www.w3.org/2000/svg" xmlns:xlink="http://www.w3.org/1999/xlink" width="100" zoomAndPan="magnify" viewBox="0 0 75 74.999997" height="100" preserveAspectRatio="xMidYMid meet" version="1.0"><defs><clipPath id="bd26f8ebef"><path d="M 0 12.234375 L 72 12.234375 L 72 62.484375 L 0 62.484375 Z M 0 12.234375 " clip-rule="nonzero"/></clipPath><clipPath id="c89ea37696"><path d="M 2.996094 12.234375 L 74.808594 12.234375 L 74.808594 62.484375 L 2.996094 62.484375 Z M 2.996094 12.234375 " clip-rule="nonzero"/></clipPath></defs><g clip-path="url(#bd26f8ebef)"><path fill="#000000" d="M 3.941406 12.359375 C 3.460938 12.351562 3 12.4375 2.554688 12.617188 C 2.109375 12.792969 1.714844 13.050781 1.375 13.386719 C 1.03125 13.722656 0.769531 14.109375 0.585938 14.550781 C 0.398438 14.992188 0.308594 15.453125 0.308594 15.929688 C 0.308594 16.40625 0.398438 16.867188 0.585938 17.308594 C 0.769531 17.75 1.03125 18.136719 1.375 18.472656 C 1.714844 18.808594 2.109375 19.066406 2.554688 19.242188 C 3 19.421875 3.460938 19.507812 3.941406 19.5 L 68.417969 19.5 C 68.898438 19.507812 69.359375 19.421875 69.804688 19.242188 C 70.25 19.066406 70.640625 18.808594 70.984375 18.472656 C 71.324219 18.136719 71.589844 17.75 71.773438 17.308594 C 71.957031 16.867188 72.050781 16.40625 72.050781 15.929688 C 72.050781 15.453125 71.957031 14.992188 71.773438 14.550781 C 71.589844 14.109375 71.324219 13.722656 70.984375 13.386719 C 70.640625 13.050781 70.25 12.792969 69.804688 12.617188 C 69.359375 12.4375 68.898438 12.351562 68.417969 12.359375 Z M 3.941406 33.785156 C 3.460938 33.78125 3 33.867188 2.554688 34.042969 C 2.109375 34.222656 1.714844 34.480469 1.375 34.816406 C 1.03125 35.148438 0.769531 35.539062 0.585938 35.980469 C 0.398438 36.421875 0.308594 36.878906 0.308594 37.359375 C 0.308594 37.835938 0.398438 38.296875 0.585938 38.738281 C 0.769531 39.175781 1.03125 39.566406 1.375 39.902344 C 1.714844 40.238281 2.109375 40.492188 2.554688 40.671875 C 3 40.851562 3.460938 40.9375 3.941406 40.929688 L 68.417969 40.929688 C 68.898438 40.9375 69.359375 40.851562 69.804688 40.671875 C 70.25 40.492188 70.640625 40.238281 70.984375 39.902344 C 71.324219 39.566406 71.589844 39.175781 71.773438 38.738281 C 71.957031 38.296875 72.050781 37.835938 72.050781 37.359375 C 72.050781 36.878906 71.957031 36.421875 71.773438 35.980469 C 71.589844 35.539062 71.324219 35.148438 70.984375 34.816406 C 70.640625 34.480469 70.25 34.222656 69.804688 34.042969 C 69.359375 33.867188 68.898438 33.78125 68.417969 33.785156 Z M 3.941406 55.214844 C 3.460938 55.207031 3 55.292969 2.554688 55.472656 C 2.109375 55.652344 1.714844 55.90625 1.375 56.242188 C 1.03125 56.578125 0.769531 56.96875 0.585938 57.40625 C 0.398438 57.847656 0.308594 58.308594 0.308594 58.785156 C 0.308594 59.265625 0.398438 59.722656 0.585938 60.164062 C 0.769531 60.605469 1.03125 60.996094 1.375 61.328125 C 1.714844 61.664062 2.109375 61.921875 2.554688 62.101562 C 3 62.277344 3.460938 62.363281 3.941406 62.359375 L 68.417969 62.359375 C 68.898438 62.363281 69.359375 62.277344 69.804688 62.101562 C 70.25 61.921875 70.640625 61.664062 70.984375 61.328125 C 71.324219 60.996094 71.589844 60.605469 71.773438 60.164062 C 71.957031 59.722656 72.050781 59.265625 72.050781 58.785156 C 72.050781 58.308594 71.957031 57.847656 71.773438 57.40625 C 71.589844 56.96875 71.324219 56.578125 70.984375 56.242188 C 70.640625 55.90625 70.25 55.652344 69.804688 55.472656 C 69.359375 55.292969 68.898438 55.207031 68.417969 55.214844 Z M 3.941406 55.214844 " fill-opacity="1" fill-rule="nonzero"/></g><g clip-path="url(#c89ea37696)"><path fill="#000000" d="M 71.054688 12.359375 C 71.535156 12.351562 71.996094 12.4375 72.441406 12.617188 C 72.886719 12.792969 73.28125 13.050781 73.621094 13.386719 C 73.964844 13.722656 74.226562 14.109375 74.410156 14.550781 C 74.597656 14.992188 74.6875 15.453125 74.6875 15.929688 C 74.6875 16.40625 74.597656 16.867188 74.410156 17.308594 C 74.226562 17.75 73.964844 18.136719 73.621094 18.472656 C 73.28125 18.808594 72.886719 19.066406 72.441406 19.242188 C 71.996094 19.421875 71.535156 19.507812 71.054688 19.5 L 6.578125 19.5 C 6.097656 19.507812 5.636719 19.421875 5.191406 19.242188 C 4.746094 19.066406 4.355469 18.808594 4.011719 18.472656 C 3.671875 18.136719 3.40625 17.75 3.222656 17.308594 C 3.039062 16.867188 2.945312 16.40625 2.945312 15.929688 C 2.945312 15.453125 3.039062 14.992188 3.222656 14.550781 C 3.40625 14.109375 3.671875 13.722656 4.011719 13.386719 C 4.355469 13.050781 4.746094 12.792969 5.191406 12.617188 C 5.636719 12.4375 6.097656 12.351562 6.578125 12.359375 Z M 71.054688 33.785156 C 71.535156 33.78125 71.996094 33.867188 72.441406 34.042969 C 72.886719 34.222656 73.28125 34.480469 73.621094 34.816406 C 73.964844 35.148438 74.226562 35.539062 74.410156 35.980469 C 74.597656 36.421875 74.6875 36.878906 74.6875 37.359375 C 74.6875 37.835938 74.597656 38.296875 74.410156 38.738281 C 74.226562 39.175781 73.964844 39.566406 73.621094 39.902344 C 73.28125 40.238281 72.886719 40.492188 72.441406 40.671875 C 71.996094 40.851562 71.535156 40.9375 71.054688 40.929688 L 6.578125 40.929688 C 6.097656 40.9375 5.636719 40.851562 5.191406 40.671875 C 4.746094 40.492188 4.355469 40.238281 4.011719 39.902344 C 3.671875 39.566406 3.40625 39.175781 3.222656 38.738281 C 3.039062 38.296875 2.945312 37.835938 2.945312 37.359375 C 2.945312 36.878906 3.039062 36.421875 3.222656 35.980469 C 3.40625 35.539062 3.671875 35.148438 4.011719 34.816406 C 4.355469 34.480469 4.746094 34.222656 5.191406 34.042969 C 5.636719 33.867188 6.097656 33.78125 6.578125 33.785156 Z M 71.054688 55.214844 C 71.535156 55.207031 71.996094 55.292969 72.441406 55.472656 C 72.886719 55.652344 73.28125 55.90625 73.621094 56.242188 C 73.964844 56.578125 74.226562 56.96875 74.410156 57.40625 C 74.597656 57.847656 74.6875 58.308594 74.6875 58.785156 C 74.6875 59.265625 74.597656 59.722656 74.410156 60.164062 C 74.226562 60.605469 73.964844 60.996094 73.621094 61.328125 C 73.28125 61.664062 72.886719 61.921875 72.441406 62.101562 C 71.996094 62.277344 71.535156 62.363281 71.054688 62.359375 L 6.578125 62.359375 C 6.097656 62.363281 5.636719 62.277344 5.191406 62.101562 C 4.746094 61.921875 4.355469 61.664062 4.011719 61.328125 C 3.671875 60.996094 3.40625 60.605469 3.222656 60.164062 C 3.039062 59.722656 2.945312 59.265625 2.945312 58.785156 C 2.945312 58.308594 3.039062 57.847656 3.222656 57.40625 C 3.40625 56.96875 3.671875 56.578125 4.011719 56.242188 C 4.355469 55.90625 4.746094 55.652344 5.191406 55.472656 C 5.636719 55.292969 6.097656 55.207031 6.578125 55.214844 Z M 71.054688 55.214844 " fill-opacity="1" fill-rule="nonzero"/></g></svg>